<svg width="56" height="56" viewBox="0 0 56 56" xmlns="http://www.w3.org/2000/svg"><path d="M28 56c15.464 0 28-12.536 28-28S43.464 0 28 0 0 12.536 0 28s12.536 28 28 28z" fill="#449862"/><path d="M28 10.957L51.13 28 28 45.044 4.87 28 28 10.956z" fill="#F2C55D"/><path d="M18.264 28.127c0-1.44.236-2.127.786-3.97a20.092 20.092 0 014.08-.418c5.657 0 10.774 2.351 14.429 6.127C37.5 31 36.5 32.5 35.975 33.586c-3.014-3.773-7.651-6.195-12.845-6.195-1.693 0-3.328.258-4.866.736z" fill="#fff"/><path d="M37.74 28a9.78 9.78 0 01-.181 1.866c-3.655-3.776-8.772-6.127-14.428-6.127-1.398 0-2.763.144-4.08.417A9.74 9.74 0 0128 18.261c5.378 0 9.738 4.36 9.738 9.739zM18.264 28.127a16.376 16.376 0 014.866-.736c5.194 0 9.832 2.422 12.845 6.195A9.725 9.725 0 0128 37.74c-5.336 0-9.668-4.292-9.736-9.612z" fill="#154CCF"/><path d="M55.5 28c0 15.188-12.312 27.5-27.5 27.5S.5 43.188.5 28 12.812.5 28 .5 55.5 12.812 55.5 28z" stroke="#000" stroke-opacity=".1" fill="none"/></svg>