<svg width="56" height="56" viewBox="0 0 56 56" xmlns="http://www.w3.org/2000/svg"><g clip-path="url(#germany-flag)"><path d="M1.742 37.74C5.698 48.4 15.96 56 28 56s22.302-7.599 26.258-18.26L28 35.303 1.742 37.74z" fill="#F2C55D"/><path d="M28 0C15.961 0 5.698 7.598 1.742 18.26L28 20.697l26.258-2.435C50.302 7.599 40.04 0 28 0z"/><path d="M1.742 18.26A27.94 27.94 0 000 28c0 3.425.616 6.706 1.742 9.74h52.517A27.94 27.94 0 0056 28c0-3.425-.616-6.706-1.742-9.74H1.742z" fill="#E74A3F"/><path d="M55.5 28c0 15.188-12.312 27.5-27.5 27.5S.5 43.188.5 28 12.812.5 28 .5 55.5 12.812 55.5 28z" stroke="#000" stroke-opacity=".1" fill="none"/></g><defs><clipPath id="germany-flag"><path fill="#fff" d="M0 0h56v56H0z"/></clipPath></defs></svg>