<svg width="56" height="56" viewBox="0 0 56 56" xmlns="http://www.w3.org/2000/svg"><path d="M28 56c15.464 0 28-12.536 28-28S43.464 0 28 0 0 12.536 0 28s12.536 28 28 28z" fill="#E74A3F"/><path d="M26.854 22.88l2.297 3.166 3.72-1.207-2.3 3.163 2.297 3.166-3.72-1.211-2.3 3.163.002-3.911-3.72-1.211 3.721-1.207.003-3.911z" fill="#fff"/><path d="M20.584 35.913a7.913 7.913 0 113.764-14.875 9.705 9.705 0 00-6.808-2.777c-5.379 0-9.739 4.36-9.739 9.739 0 5.379 4.36 9.739 9.74 9.739 2.65 0 5.05-1.06 6.807-2.777a7.876 7.876 0 01-3.764.951z" fill="#fff"/><path d="M55.5 28c0 15.188-12.312 27.5-27.5 27.5S.5 43.188.5 28 12.812.5 28 .5 55.5 12.812 55.5 28z" stroke="#000" stroke-opacity=".1" fill="none"/></svg>