<svg width="56" height="56" viewBox="0 0 56 56" xmlns="http://www.w3.org/2000/svg"><g clip-path="url(#poland-flag0)"><g clip-path="url(#poland-flag1)"><path d="M28 0C12.536 0 0 12.536 0 28s12.536 28 28 28 28-12.536 28-28S43.464 0 28 0z" fill="#fff"/><path d="M56 28c0 15.464-12.536 28-28 28S0 43.464 0 28" fill="#E74A3F"/><path d="M55.5 28c0 15.188-12.312 27.5-27.5 27.5S.5 43.188.5 28 12.812.5 28 .5 55.5 12.812 55.5 28z" stroke="#000" stroke-opacity=".1" fill="none"/></g></g><defs><clipPath id="poland-flag0"><path fill="#fff" d="M0 0h56v56H0z"/></clipPath><clipPath id="poland-flag2"><path fill="#fff" transform="rotate(-180 28 28)" d="M0 0h56v56H0z"/></clipPath></defs></svg>