<svg width="56" height="56" viewBox="0 0 56 56" xmlns="http://www.w3.org/2000/svg"><path fill-rule="evenodd" clip-rule="evenodd" d="M28 56c15.464 0 28-12.536 28-28S43.464 0 28 0 0 12.536 0 28s12.536 28 28 28z" fill="#6DA544"/><path fill-rule="evenodd" clip-rule="evenodd" d="M28 38.768c.332 0 .659-.01.898-.029a.173.173 0 01.186.175v.128c.468-.04 1.066-.13 1.528-.236l-.04-.124c-.031-.096.014-.196.114-.22.512-.121 1.28-.371 1.716-.549.095-.039.2.014.232.11l.04.122c.433-.18.973-.449 1.38-.69l-.077-.105c-.06-.082-.049-.191.039-.244.449-.271 1.1-.742 1.46-1.044a.177.177 0 01.255.034l.076.103c.355-.303.785-.722 1.096-1.075l-.106-.077c-.083-.06-.107-.166-.04-.243.342-.395.814-1.041 1.06-1.437a.177.177 0 01.254-.046l.105.076c.242-.397.52-.926.704-1.356L38.755 32c-.098-.032-.154-.126-.115-.22.202-.479.448-1.237.558-1.689a.175.175 0 01.227-.12l.124.04c.106-.45.203-1.038.244-1.503l-.132-.002c-.103 0-.186-.072-.178-.173a13.49 13.49 0 000-1.776c-.008-.101.075-.183.178-.183h.13c-.04-.461-.133-1.05-.24-1.504l-.126.038c-.098.032-.2-.012-.224-.11a13.566 13.566 0 00-.557-1.69.171.171 0 01.111-.228l.124-.04a11.7 11.7 0 00-.7-1.357l-.108.075c-.084.06-.194.049-.248-.037a13.724 13.724 0 00-1.06-1.437.17.17 0 01.034-.251l.105-.075c-.308-.35-.735-.772-1.093-1.078l-.078.104c-.06.082-.17.105-.248.04a13.948 13.948 0 00-1.46-1.044.17.17 0 01-.046-.25l.076-.103a12 12 0 00-1.377-.693l-.042.123c-.032.096-.128.152-.223.113a14.09 14.09 0 00-1.717-.549.172.172 0 01-.122-.223l.04-.122c-.457-.104-1.055-.2-1.527-.24l-.001.13c0 .1-.074.183-.177.175a14.146 14.146 0 00-1.805 0 .173.173 0 01-.186-.175v-.128c-.468.04-1.066.13-1.528.236l.04.124c.031.096-.014.196-.114.22-.512.121-1.28.371-1.716.549a.175.175 0 01-.232-.11l-.04-.122c-.433.18-.973.449-1.38.69l.077.105c.06.082.05.191-.038.244-.45.271-1.102.742-1.46 1.044a.176.176 0 01-.256-.034l-.076-.103c-.355.303-.785.722-1.095 1.075l.105.077c.083.06.107.166.04.243a13.69 13.69 0 00-1.06 1.437.177.177 0 01-.254.046l-.105-.075c-.243.396-.52.925-.704 1.355l.125.041c.098.032.154.126.115.22-.202.479-.448 1.237-.558 1.689a.175.175 0 01-.227.12l-.123-.04c-.107.45-.204 1.038-.244 1.503l.131.002c.103 0 .186.072.178.173a13.454 13.454 0 000 1.776c.008.101-.075.183-.178.183h-.13c.04.461.133 1.05.24 1.504l.126-.039c.098-.03.2.013.224.112.123.504.377 1.26.558 1.689a.171.171 0 01-.112.228l-.124.04c.184.425.456.957.7 1.357l.108-.075c.084-.06.194-.049.248.037.276.442.755 1.084 1.06 1.437a.17.17 0 01-.034.251l-.105.075c.308.35.735.773 1.093 1.078l.078-.104c.06-.082.17-.105.248-.04.4.337 1.058.802 1.46 1.044a.17.17 0 01.046.25l-.076.103c.402.239.94.511 1.377.693l.042-.123c.032-.096.128-.152.223-.113.487.198 1.258.44 1.717.549.1.024.153.127.122.223l-.04.122c.457.104 1.055.2 1.527.24l.001-.13c0-.1.074-.183.177-.175.258.02.585.03.907.029v.966a10.08 10.08 0 01-.898-.034c-.102-.008-.186-.181-.186-.282-.508-.044-1.234-.208-1.63-.307l-.048.145c-.031.096-.134.142-.234.117a12.017 12.017 0 01-1.708-.545c-.094-.04-.151-.135-.12-.231l.047-.143a12.512 12.512 0 01-1.47-.74l-.09.124c-.06.081-.173.094-.26.04-.442-.271-.99-.643-1.453-1.038-.077-.067-.101-.174-.041-.256l.089-.122c-.385-.329-.905-.84-1.165-1.15l-.125.09c-.084.06-.194.037-.26-.04-.336-.393-.74-.913-1.056-1.43-.053-.087-.042-.196.041-.256l.123-.089a12.135 12.135 0 01-.747-1.448l-.147.047c-.098.032-.196-.023-.235-.117a11.565 11.565 0 01-.554-1.68c-.023-.099.021-.2.12-.231l.143-.047a12.035 12.035 0 01-.255-1.605h-.155c-.103 0-.179-.082-.186-.183a11.522 11.522 0 010-1.766c.009-.101.083-.183.186-.183l.152-.001c.045-.5.16-1.214.261-1.604l-.147-.046c-.098-.032-.144-.133-.12-.231.126-.498.316-1.126.555-1.68.04-.094.137-.15.235-.118l.145.045c.2-.461.534-1.106.751-1.445l-.125-.09c-.083-.06-.095-.17-.041-.256.276-.435.654-.974 1.055-1.429.068-.076.177-.1.26-.04l.124.087c.335-.379.855-.89 1.169-1.147l-.091-.123c-.06-.082-.038-.19.04-.256.4-.33.928-.728 1.453-1.038.089-.052.2-.041.26.04l.09.12a12.512 12.512 0 011.472-.734l-.048-.145c-.031-.096.025-.193.12-.23.483-.193 1.11-.41 1.707-.547.1-.022.203.022.235.118l.048.142a12.647 12.647 0 011.63-.252v-.151c0-.102.084-.176.186-.184.52-.036 1.185-.052 1.796 0 .102.01.186.082.186.184v.15a12.65 12.65 0 011.63.256l.048-.145c.032-.096.134-.142.234-.117.506.123 1.144.31 1.708.545.094.04.151.135.12.231l-.047.143c.469.196 1.124.525 1.47.74l.09-.124c.06-.082.173-.094.26-.04.443.27.99.643 1.453 1.038.077.067.101.174.041.256l-.089.122c.385.329.905.84 1.166 1.15l.124-.09c.084-.06.194-.037.26.04.336.393.74.913 1.056 1.43.053.087.042.196-.041.256l-.123.088c.262.43.596 1.075.747 1.448l.147-.046c.098-.032.196.023.235.117.196.476.417 1.093.555 1.68.023.099-.022.2-.12.231l-.144.047c.114.489.229 1.204.255 1.605h.155c.103 0 .179.082.186.183.037.511.053 1.166 0 1.766-.009.1-.083.183-.186.183l-.152.001c-.045.5-.16 1.214-.261 1.603l.147.047c.098.032.144.133.12.231a11.585 11.585 0 01-.555 1.68c-.04.093-.137.15-.235.118l-.145-.045c-.2.461-.533 1.106-.751 1.445l.125.09c.083.06.095.17.041.256a11.72 11.72 0 01-1.055 1.429c-.068.076-.177.1-.26.04l-.124-.087c-.334.378-.855.89-1.169 1.147l.091.123c.06.082.038.19-.041.256-.399.33-.927.728-1.452 1.038-.088.052-.2.041-.26-.04l-.09-.121c-.438.258-1.093.587-1.472.735l.048.145c.032.096-.025.192-.12.23-.483.193-1.11.411-1.707.547-.1.022-.203-.022-.235-.118l-.048-.142c-.496.112-1.223.225-1.63.251v.152c0 .102-.084.176-.186.183-.27.02-.578.033-.898.034v-.966z" fill="#FACB4E"/><path fill-rule="evenodd" clip-rule="evenodd" d="M28.665 15.924c.076 0 .138-.044.138-.098v-.324c0-.054-.062-.098-.138-.098h-1.33c-.076 0-.138.044-.138.098v.324c0 .054.062.098.138.098h1.33zM25.016 16.285c.073-.023.117-.084.1-.135l-.101-.307c-.017-.052-.09-.075-.162-.052l-1.265.405c-.073.023-.117.083-.1.135l.1.307c.018.052.09.075.163.051l1.265-.404zM21.659 17.739c.062-.044.085-.116.053-.16l-.193-.26c-.032-.045-.109-.044-.17 0l-1.076.769c-.062.044-.086.115-.053.159l.193.261c.032.044.108.044.17 0l1.076-.77zM18.923 20.142c.044-.061.045-.136 0-.168l-.266-.19c-.044-.031-.116-.008-.161.053l-.782 1.058c-.045.061-.045.136 0 .168l.265.19c.045.032.117.008.162-.052l.782-1.06zM17.075 23.26c.024-.072 0-.144-.052-.16l-.313-.1c-.052-.017-.113.027-.137.099l-.411 1.245c-.023.07 0 .142.052.159l.312.1c.053.017.114-.028.138-.1l.41-1.244zM16.297 26.786c0-.075-.045-.136-.1-.136h-.328c-.055 0-.1.06-.1.136v1.309c0 .075.045.136.1.136h.328c.055 0 .1-.061.1-.136v-1.31zM16.664 30.377c-.023-.072-.085-.116-.137-.1l-.313.1c-.052.017-.075.089-.052.16l.411 1.245c.024.071.086.115.138.099l.312-.1c.053-.017.076-.088.052-.16l-.41-1.244zM18.141 33.68c-.044-.061-.117-.084-.161-.052l-.266.19c-.044.031-.044.106 0 .167l.782 1.059c.045.06.118.084.162.052l.266-.19c.044-.032.044-.107 0-.167l-.783-1.06zM20.584 36.372c-.062-.044-.138-.044-.17 0l-.194.261c-.032.044-.008.115.053.16l1.077.768c.061.044.137.045.17 0l.193-.26c.032-.044.008-.116-.053-.16l-1.076-.769zM23.752 38.19c-.073-.023-.145 0-.162.051l-.102.308c-.017.051.028.112.1.135l1.266.404c.072.023.145 0 .162-.051l.101-.307c.017-.052-.028-.112-.1-.136l-1.265-.404zM27.336 38.956c-.076 0-.138.044-.138.098v.323c0 .054.062.098.138.098h1.33c.076 0 .138-.044.138-.098v-.323c0-.055-.062-.098-.138-.098h-1.33zM30.985 38.594c-.073.023-.118.084-.1.135l.1.307c.018.052.09.075.163.052l1.265-.405c.072-.023.117-.083.1-.135l-.101-.307c-.017-.052-.09-.075-.163-.051l-1.264.404zM34.341 37.14c-.061.044-.085.116-.053.16l.193.26c.033.045.109.045.17 0l1.077-.769c.061-.044.085-.115.053-.16l-.193-.26c-.033-.044-.109-.044-.17 0l-1.077.77zM37.077 34.737c-.044.061-.045.136 0 .168l.266.19c.044.031.116.008.161-.052l.782-1.06c.045-.06.045-.135 0-.167l-.265-.19c-.045-.032-.117-.008-.162.052l-.782 1.06zM38.925 31.62c-.024.071 0 .142.052.16l.312.1c.053.016.114-.028.137-.1l.412-1.245c.023-.07 0-.142-.053-.159l-.312-.1c-.052-.016-.114.028-.137.1l-.411 1.244zM39.703 28.093c0 .075.044.136.1.136h.328c.055 0 .1-.06.1-.136v-1.308c0-.075-.046-.136-.1-.136h-.329c-.055 0-.1.06-.1.136v1.308zM39.335 24.503c.024.071.085.115.137.099l.313-.1c.052-.017.075-.088.052-.16l-.411-1.244c-.024-.072-.085-.116-.138-.1l-.312.1c-.052.018-.076.089-.052.16l.411 1.245zM37.858 21.2c.045.06.117.084.162.052l.265-.19c.045-.032.045-.107 0-.167l-.782-1.06c-.045-.06-.117-.083-.162-.051l-.266.19c-.044.032-.044.107.001.167l.782 1.059zM35.416 18.508c.061.044.138.044.17 0l.193-.261c.032-.044.008-.115-.053-.16l-1.077-.768c-.061-.044-.137-.045-.17 0l-.193.26c-.032.044-.008.116.054.16l1.076.769zM32.247 16.69c.073.023.145 0 .162-.051l.102-.308c.017-.051-.028-.112-.1-.135l-1.266-.404c-.072-.023-.144 0-.162.051l-.1.308c-.018.051.027.112.1.135l1.264.404z" fill="#7DB63E"/><path fill-rule="evenodd" clip-rule="evenodd" d="M27.967 17.68c-.562.262-.624.218-.517.42.107.202.234.089.698-.113.356-.155.583-.202.484-.428-.098-.227-.16-.115-.665.12zM25.652 18.052c-.283.287-.214.258.016.492.23.235.247.243.452.033.205-.21.304-.218.057-.501-.246-.283-.27-.283-.525-.024zM24.743 17.94c-.268.261-.202.235.016.449.218.213.233.22.428.029.195-.191.288-.199.054-.456-.233-.258-.256-.258-.498-.022zM28.312 18.722c-.297-.108-.73-.324-1.404-.17-.353.081-.591.437-.164.728.427.29.887.703 1.15.961.262.259.93.356 1.391.045.317-.215.332-.667-.029-.87-.361-.201-.626.016-.702.195-.102.242.21.428.238.238.042-.272.486-.315.218.045-.09.121-.444.404-.83.129-.385-.275-.476-.307-.771-.525-.296-.218-.903-.639.066-.663.968-.024.435.485-.255.752-.69.266-1.1-.049-1.667-.34-.58-.298-.722.097-.846.404-.123.307-.599.202-.788.114-.189-.09-.525-.081-.197.371.329.453 1.135.1 1.248-.145.173-.372.353-.518 1.076-.097.402.234 1.157.242 1.535-.121.378-.364.674-.526.813-.59.14-.065.23-.348-.082-.46zM29.938 18.044c-.07-.226-.574.05-.534.226.205.913.452 1.72.714 2.157.263.436.707.5 1.413.145.706-.355 1.38-.71.788-1.098-.591-.388-1.74-.291-2.004.452-.262.743-.476 1.616-.246 1.713.23.097.46-.493.51-.978.049-.485-.025-.896.746-.977.772-.081.846.161.485.387-.361.227-1.215.566-1.33.033a32.835 32.835 0 00-.542-2.06zM31.62 20.863c-.248.224-.254.315-.007.501.246.186.287.097.443-.048.156-.146.205-.259.017-.42-.19-.162-.263-.203-.452-.033zM32.803 21.841c-.32.468-.861.266-1.026.493-.123.17-.181.983.074.662.443-.557.944-.444 1.051-.646.107-.202.123-.832-.099-.509zM24.552 21.396c.205.178.634.539.837.154.107-.202.213-.259.402-.089.19.17.55.25.55-.121 0-.226.124-.315.288-.049.164.267-.09 1.293-.969.542-.657.654-1.092.25-1.174.048.033-.17.066-.396.066-.485zM21.571 20.992c-.276.295-.164.307-.008.493s.238.316.5.105c.263-.21.296-.315.066-.557-.23-.243-.361-.25-.558-.04zM22.786 21.146c-.313.267-.304.3-.008.598.296.299.296.25.55.024.255-.226.288-.266 0-.55-.287-.282-.296-.282-.542-.072zM20.397 23.045c0 .68.722 1.163 1.067.355.375-.877 1.047-1.428 1.61-.71.443.565 1.196 1.004 1.658.549.329-.323.575-.275.953.016.377.29 1.028.265.985-.356-.017-.234.082-.396.27-.048.19.347-.014 1.048-.68 1.099-.214.016-.559.04-.78-.235-.222-.274-.342-.247-.6-.024-.337.29-1.277.282-1.65-.194-.583-.743-.904-.824-1.216-.242-.312.582-.815 1.403-1.535.695-.37-.364-.28-.72-.271-.849.008-.129.189-.21.189-.056z" fill="#FFFFFE"/><path fill-rule="evenodd" clip-rule="evenodd" d="M22.49 23.57c-.588.236-.744.921-.23 1.22.321.186.46-.275.23-.388-.23-.113-.155-.388.1-.59.249-.198.122-.33-.1-.242z" fill="#FFFFFE"/><path fill-rule="evenodd" clip-rule="evenodd" d="M27.353 28.464c-.547-.55-1.712-.709-2.473-.669-.92.049-1.576-.565-1.774-1.325-.064-.247-.328-.51-.246.033.131.872.821 1.47 2.02 1.567 1.8.146 2.988.733 2.3 2.585-.428 1.148-2.6 1.791-3.712.566-1.248-1.373-.69-3.083 1.1-4.783.476-.452.903-.727 1.215-.824.312-.097.87-.643.214-.792-.854-.194-2.134-.078-2.956.348-.156.08-.132.493.221.484.354-.008.6-.008.928.413.195.249.608.635 1.162.888-1.248.549-1.178 2.246-.061 3.135 1.116.889 3.264.782 4.483-.453 2.266-2.294.01-3.905 1.116-6.237.115-.242.214-.436.033-.581-.18-.146-.361-.582-.443-.857-.082-.275-.175-.225-.23.178-.476 3.49 1.067 5.365-.51 6.916-1.708 1.68-3.07 1.304-4.17.517-.362-.259-1.412-1.666.164-2.474.286.084.6.125.936.099 1.215-.097 1.847-1.202 1.461-2.796-.082-.34-.338-.998.082-1.066.198-.033.099-.162-.016-.356-.115-.194-.28-.63-.296-.889-.016-.258-.127-.16-.213.146-.213.76-.18 1.373-.016 2.133.164.76.28 1.813-.526 2.294-1.461.873-2.644-.97-3.054-1.082-.313-.086-.558-.356.033-.453.492-.08 1.083-.064 1.313-.08.23-.017.526.145.099.29-.953.324-1.708 1.18-2.25 1.859-.542.678-1.642 1.583-2.447.937-.805-.647-.424-1.455-.033-1.955.165-.21.18-.34-.115-.437-.295-.096-.645-.48.05-1.163.115-.113-.05-.275-.181-.162-.614.529-.854 1.115-.082 1.632-.608.792-.591 1.94-.05 2.392.543.452 1.61.468 2.201-.113-.542 1.39-.246 3.846 2.266 3.959 2.513.113 3.144-2.145 2.71-3.426 1.314-.808 2.923-1.099 3.908-1.81.986-.71 1.866-1.485 1.511-2.973-.312-1.309-1.601-.776-1.732-.235-.103.422.014.996.796 1.156.394.08.29-.2 0-.347-.287-.146-.542-.655-.295-.913.246-.259.82-.307.952.727.131 1.034-.76 1.81-1.281 2.23-1.002.808-3.117 1.208-4.112 1.767z" fill="#FFFFFE"/><path fill-rule="evenodd" clip-rule="evenodd" d="M21.514 25.663c-.24.156-.386.17-.14.5.246.332.27.202.468.073.197-.13.337-.137.131-.46-.205-.324-.287-.227-.46-.113zM21.193 26.664c-.28.21-.254.3-.074.534.18.234.238.266.51.04.27-.226.23-.283.057-.493-.173-.21-.213-.29-.493-.08zM23.878 29.524c-.223.171-.197.259-.049.47.148.21.23.241.427.047.197-.193.28-.242.066-.484-.214-.243-.296-.146-.444-.032zM32.171 24.297c.074.052.136.08.177.049.04-.033.045-.142.008-.202-.037-.06-.14-.11-.205-.045-.066.065-.037.158.02.198z" fill="#FFFFFE"/><path fill-rule="evenodd" clip-rule="evenodd" d="M32.073 29.67c-.395.905-1.807 2.327-2.923 1.745-1.2-.625-.427-2.165-.066-3.329.361-1.163.082-3.555-.132-4.233-.213-.68-.197-1.406-.098-1.94.098-.533.246-.274.28.05.032.322.13 1.066.311 1.21.18.146.41.276.18.47-.23.194-.246.824-.114 1.826.131 1.002.197 2.262-.23 3.167-.427.905-.558 2.003.164 2.327.723.323 1.413-.162 2.266-1.681-.558-1.099-.755-2.763-.46-3.571.122-.332.477-.372.378.162-.098.533-.082 2.569.64 3.345.723.775 1.533.704 1.676-.42.197-1.552.054-4.434-.361-5.866-.066-.227-.083-.404.114-.582.197-.178.378-.485.394 0 .017.485-.075.716.493 1.39 3.367 3.99-.509 10.357-7.57 8.968-.752-.148-.26-.317.361-.226 3.087.452 5.448-.662 6.864-2.327 1.276-1.5 1.741-4.59.066-5.785.164 2.65.361 4.88-.46 5.558-.82.68-1.412.13-1.773-.258z" fill="#FFFFFE"/><path fill-rule="evenodd" clip-rule="evenodd" d="M32.877 27.004c-.344.5-.324 1.227.271 1.413.386.122.37-.274.14-.412-.23-.137-.281-.403-.123-.686.09-.162-.099-.59-.288-.315z" fill="#FFFFFE"/><path fill-rule="evenodd" clip-rule="evenodd" d="M28 37.495c5.643 0 10.219-4.502 10.219-10.055 0-3.048-1.377-5.773-3.554-7.617a8.68 8.68 0 012.097 5.665c0 4.816-3.923 8.72-8.762 8.72s-8.762-3.904-8.762-8.72c0-2.16.79-4.142 2.097-5.665-2.177 1.844-3.553 4.57-3.553 7.617 0 5.553 4.575 10.055 10.218 10.055zM27.266 11.861c-.343-1.87-3.128-1.99-3.575-2.281-.505-.329-.438-.007-.238.505.507 1.293 2.235 1.839 3.024 1.972.646.11.854.157.79-.196z" fill="#FFFFFE"/><path fill-rule="evenodd" clip-rule="evenodd" d="M28.105 11.908c.27-1.9-2.48-2.813-2.815-3.231-.378-.472-.431-.185-.271.346.343 1.139 1.553 2.456 2.267 2.829.584.305.769.414.82.056z" fill="#FFFFFE"/><path fill-rule="evenodd" clip-rule="evenodd" d="M30.386 13.025c.242-2.293-1.992-2.649-2.582-3.366-.38-.463-.415-.209-.29.325.268 1.147 1.383 2.523 2.066 2.935.558.337.769.462.806.106z" fill="#FFFFFE"/><path fill-rule="evenodd" clip-rule="evenodd" d="M29.685 12.528c-2.326-1.502-3.958-.666-4.624-.736-.658-.068-.863.338.257.943 1.341.726 3.247.625 4 .336.754-.288.532-.436.367-.543zM33.19 13.543c-.705-2.493-2.365-2.09-2.858-2.391-.476-.291-.538-.218-.427.339.197.986 1.902 2.064 2.759 2.392.295.113.69.242.525-.34z" fill="#FFFFFE"/><path fill-rule="evenodd" clip-rule="evenodd" d="M32.877 13.954c-2.018-1.587-3.573-.387-4.198-.576-.438-.133-.24.184-.064.304 1.29.883 2.876 1.352 4.105.815.47-.205.506-.268.157-.543zM37.196 15.58c.033-1.568-3.268-2.215-3.941-3.184-.408-.588-.78-.265-.558.646.295 1.212 2.561 2.553 3.777 2.812.743.158.719-.097.722-.275z" fill="#FFFFFE"/><path fill-rule="evenodd" clip-rule="evenodd" d="M37.098 15.838c-2.08-1.82-3.818-1.226-4.467-1.39-.64-.162-.903.21.115.97 1.22.91 3.12 1.082 3.908.905.789-.178.591-.356.444-.485zM40.816 18.544c-.614-2.677-2.472-3.212-2.921-3.723-.443-.503-.903-.357-.52.848.46 1.445 1.97 2.691 2.755 3.008.784.316.73.058.686-.133z" fill="#FFFFFE"/><path fill-rule="evenodd" clip-rule="evenodd" d="M40.78 18.902c-1.502-2.4-3.489-2.312-4.097-2.661-.6-.344-.999-.051-.218.994.935 1.253 2.823 1.97 3.692 2.02.87.05.73-.182.623-.353z" fill="#FFFFFE"/><path fill-rule="evenodd" clip-rule="evenodd" d="M42.73 21.752c.852-2.723-1.134-3.735-1.346-4.185-.214-.453-.45-.453-.591.032-.559 1.923 1.264 3.83 1.543 4.185.28.356.329.178.394-.032z" fill="#FFFFFE"/><path fill-rule="evenodd" clip-rule="evenodd" d="M42.303 22.511c-.668-3.07-2.495-2.892-2.906-3.312-.427-.437-.483-.129-.41.42.196 1.487 2.009 2.515 2.84 3.006.247.145.575.339.477-.114zM44.06 26.083c1.241-2.872-.23-4.816-.69-5.236-.459-.42-.754-.6-.607 0 .214.873-.492 3.151.591 4.8.362.549.427 1.082.707.436z" fill="#FFFFFE"/><path fill-rule="evenodd" clip-rule="evenodd" d="M43.387 26.648c.296-1.761-.739-3.361-1.839-3.991-.646-.37-.668-.293-.657.259.033 1.615 1.593 2.989 2.053 3.732.44.713.413.182.443 0z" fill="#FFFFFE"/><path fill-rule="evenodd" clip-rule="evenodd" d="M43.097 31.241c-.901-3.334 1.017-5.235 1.587-5.624.57-.39.92-.54.665.093-.372.923.038 3.525-1.41 5.162-.482.546-.64 1.12-.842.37z" fill="#FFFFFE"/><path fill-rule="evenodd" clip-rule="evenodd" d="M43.323 30.523c.761-2.901-.917-4.54-1.415-4.874-.498-.334-.803-.464-.577.085.33.8-.01 3.062 1.258 4.474.423.471.563.968.734.315z" fill="#FFFFFE"/><path fill-rule="evenodd" clip-rule="evenodd" d="M42.378 29.16c-1.386 1.465-1.428 3.59-.798 4.848.37.74.44.681.776.16.987-1.529.397-3.762.435-4.737.038-.934-.27-.421-.413-.27z" fill="#FFFFFE"/><path fill-rule="evenodd" clip-rule="evenodd" d="M44.645 31.48c-.002 2-1.247 3.647-2.58 4.145-.783.292-.78.206-.679-.404.375-2.255 2.121-3.082 2.768-3.82.62-.71.49-.127.49.08z" fill="#FFFFFE"/><path fill-rule="evenodd" clip-rule="evenodd" d="M39.89 37.459c2.233-2.004 1.05-3.426 1.15-4.735.052-.704-.24-.52-.494-.275-1.445 1.39-1.498 3.858-1.198 4.816.13.42.333.38.541.194z" fill="#FFFFFE"/><path fill-rule="evenodd" clip-rule="evenodd" d="M42.893 36.15c-.733 2.214-2.713 3.595-4.371 3.674-.973.047-.938-.048-.603-.687 1.24-2.363 3.475-2.66 4.46-3.249.946-.564.59.034.514.262z" fill="#FFFFFE"/><path fill-rule="evenodd" clip-rule="evenodd" d="M36.783 40.326c2.913-1.45 2.327-3.839 2.877-4.446.385-.425-.09-.367-.323-.231-1.708.996-3.088 2.543-3.106 4.215-.006.64.048.713.552.462z" fill="#FFFFFE"/><path fill-rule="evenodd" clip-rule="evenodd" d="M32.778 42.998c3.696.569 5.404-2.178 6.487-2.434.562-.133.145-.343-.124-.373-2.47-.276-5.589.85-6.536 2.115-.386.514-.385.607.173.692z" fill="#FFFFFE"/><path fill-rule="evenodd" clip-rule="evenodd" d="M36.528 38.68c-.733 2.397-3.501 4.351-5.588 4.514-.97.075-.98-.043-.622-.67 1.687-2.956 4.564-3.458 5.587-4.217.883-.655.693.144.623.374zM28.734 11.861c.343-1.87 3.128-1.99 3.576-2.281.504-.329.438-.007.237.505-.507 1.293-2.235 1.839-3.024 1.972-.646.11-.854.157-.79-.196z" fill="#FFFFFE"/><path fill-rule="evenodd" clip-rule="evenodd" d="M27.895 11.908c-.27-1.9 2.48-2.813 2.815-3.231.378-.472.431-.185.271.346-.343 1.139-1.553 2.456-2.267 2.829-.584.305-.768.414-.82.056z" fill="#FFFFFE"/><path fill-rule="evenodd" clip-rule="evenodd" d="M25.614 13.025c-.241-2.293 1.992-2.649 2.582-3.366.38-.463.415-.209.29.325-.268 1.147-1.383 2.523-2.066 2.935-.558.337-.769.462-.806.106z" fill="#FFFFFE"/><path fill-rule="evenodd" clip-rule="evenodd" d="M26.315 12.528c2.326-1.502 3.958-.666 4.624-.736.658-.068.863.338-.257.943-1.341.726-3.247.625-4 .336-.754-.288-.533-.436-.367-.543zM22.81 13.543c.705-2.493 2.364-2.09 2.858-2.391.476-.291.538-.218.427.339-.197.986-1.902 2.064-2.759 2.392-.295.113-.69.242-.525-.34z" fill="#FFFFFE"/><path fill-rule="evenodd" clip-rule="evenodd" d="M23.123 13.954c2.018-1.587 3.573-.387 4.198-.576.438-.133.24.184.064.304-1.29.883-2.876 1.352-4.105.815-.47-.205-.506-.268-.157-.543zM18.804 15.58c-.033-1.568 3.268-2.215 3.941-3.184.408-.588.78-.265.558.646-.295 1.212-2.561 2.553-3.777 2.812-.743.158-.718-.097-.722-.275z" fill="#FFFFFE"/><path fill-rule="evenodd" clip-rule="evenodd" d="M18.902 15.838c2.08-1.82 3.818-1.226 4.467-1.39.64-.162.903.21-.115.97-1.22.91-3.12 1.082-3.908.905-.788-.178-.591-.356-.444-.485zM15.184 18.544c.614-2.677 2.472-3.212 2.921-3.723.443-.503.903-.357.52.848-.46 1.445-1.97 2.691-2.755 3.008-.784.316-.73.058-.686-.133z" fill="#FFFFFE"/><path fill-rule="evenodd" clip-rule="evenodd" d="M15.22 18.902c1.502-2.4 3.489-2.312 4.097-2.661.6-.344.999-.051.218.994-.935 1.253-2.823 1.97-3.692 2.02-.87.05-.73-.182-.622-.353z" fill="#FFFFFE"/><path fill-rule="evenodd" clip-rule="evenodd" d="M13.27 21.752c-.852-2.723 1.134-3.735 1.346-4.185.214-.453.45-.453.591.032.559 1.923-1.264 3.83-1.543 4.185-.28.356-.329.178-.394-.032z" fill="#FFFFFE"/><path fill-rule="evenodd" clip-rule="evenodd" d="M13.697 22.511c.668-3.07 2.495-2.892 2.906-3.312.427-.437.483-.129.41.42-.196 1.487-2.009 2.515-2.84 3.006-.247.145-.575.339-.476-.114zM11.94 26.083c-1.241-2.872.23-4.816.69-5.236.459-.42.754-.6.607 0-.214.873.492 3.151-.591 4.8-.362.549-.427 1.082-.707.436z" fill="#FFFFFE"/><path fill-rule="evenodd" clip-rule="evenodd" d="M12.613 26.648c-.296-1.761.739-3.361 1.839-3.991.646-.37.668-.293.657.259-.033 1.615-1.593 2.989-2.053 3.732-.44.713-.413.182-.443 0z" fill="#FFFFFE"/><path fill-rule="evenodd" clip-rule="evenodd" d="M12.903 31.241c.901-3.334-1.017-5.235-1.587-5.624-.57-.39-.92-.54-.665.093.373.923-.038 3.525 1.41 5.162.482.546.639 1.12.842.37z" fill="#FFFFFE"/><path fill-rule="evenodd" clip-rule="evenodd" d="M12.677 30.523c-.76-2.901.917-4.54 1.415-4.874.498-.334.803-.464.577.085-.33.8.01 3.062-1.258 4.474-.423.471-.563.968-.734.315z" fill="#FFFFFE"/><path fill-rule="evenodd" clip-rule="evenodd" d="M13.623 29.16c1.385 1.465 1.427 3.59.797 4.848-.37.74-.44.681-.776.16-.988-1.529-.396-3.762-.435-4.737-.038-.934.27-.421.414-.27z" fill="#FFFFFE"/><path fill-rule="evenodd" clip-rule="evenodd" d="M11.356 31.48c.001 2 1.246 3.647 2.58 4.145.783.292.78.206.678-.404-.376-2.255-2.121-3.082-2.768-3.82-.62-.71-.49-.127-.49.08z" fill="#FFFFFE"/><path fill-rule="evenodd" clip-rule="evenodd" d="M16.11 37.459c-2.233-2.004-1.05-3.426-1.149-4.735-.053-.704.239-.52.493-.275 1.445 1.39 1.498 3.858 1.199 4.816-.132.42-.334.38-.542.194z" fill="#FFFFFE"/><path fill-rule="evenodd" clip-rule="evenodd" d="M13.107 36.15c.734 2.214 2.713 3.595 4.372 3.674.973.047.937-.048.602-.687-1.24-2.363-3.474-2.66-4.46-3.249-.946-.564-.59.034-.514.262z" fill="#FFFFFE"/><path fill-rule="evenodd" clip-rule="evenodd" d="M19.217 40.326c-2.913-1.45-2.327-3.839-2.877-4.446-.385-.425.09-.367.323-.231 1.708.996 3.088 2.543 3.106 4.215.007.64-.048.713-.552.462z" fill="#FFFFFE"/><path fill-rule="evenodd" clip-rule="evenodd" d="M23.223 42.998c-3.697.569-5.404-2.178-6.488-2.434-.562-.133-.144-.343.124-.373 2.47-.276 5.59.85 6.536 2.115.386.514.385.607-.172.692z" fill="#FFFFFE"/><path fill-rule="evenodd" clip-rule="evenodd" d="M19.472 38.68c.733 2.397 3.501 4.351 5.588 4.514.97.075.98-.043.622-.67-1.687-2.956-4.564-3.458-5.587-4.217-.882-.655-.693.144-.623.374z" fill="#FFFFFE"/><path fill-rule="evenodd" clip-rule="evenodd" d="M32.335 14.19c-.492-.356-2.299-.162-2.61-.388.64.533 2.052.145 2.61.388zM36.654 15.094c-.394-.678-2.66-1.13-3.005-1.745.608 1.164 2.365 1.002 3.005 1.745zM36.31 15.886c-.822-.824-2.809-.5-3.4-.97 1.396 1.229 2.152.275 3.4.97zM31.37 12.291c.54.28 1.222.556 1.54 1.204-.366-.49-1.074-.693-1.644-1.113a.337.337 0 00.104-.091zM39.775 17.486c-.329-.743-1.495-1.584-1.61-1.875.345.986 1.297 1.229 1.61 1.875zM40.086 18.827c-1.034-1.6-2.627-1.406-3.284-2.02.493.582 2.348.97 3.284 2.02zM42.468 21.267c.082-1.68-1.199-2.327-1.248-3.264-.033 1.115 1.297 2.666 1.248 3.264zM41.827 22.172c-.262-1.47-2.003-1.551-2.299-2.424 0 .808 2.037 1.632 2.3 2.424zM43.272 21.332c.92 1.131.263 2.812.657 4.04-.46-.905-.23-3.168-.657-4.04zM41.761 26.083c1.38 1.454.822 3.102 1.38 3.813-.69-1.002-.591-2.908-1.38-3.813zM44.619 26.277c-1.182 1.292-.46 3.231-1.084 4.136.69-.776.591-3.167 1.084-4.136zM43.14 26.277c-.163-1.487-1.575-2.263-1.707-3.07-.131.807 1.38 2.068 1.708 3.07zM42.419 29.831c.23 1.035-.625 3.265-.362 3.943-.558-1.196.493-3.425.361-3.943zM44.225 32.19c-.559 1.843-1.675 1.714-2.037 2.845.263-1.067 1.741-2.036 2.037-2.844zM40.58 33.063c-.756 1.228-.132 2.65-.756 3.523.887-.873.427-2.52.755-3.523zM42.353 36.424c-.887 1.649-2.726 1.487-3.482 2.683.756-1.487 3.022-1.745 3.482-2.683zM39.101 36.23c-1.576 1.1-1.084 2.23-2.299 3.426 1.51-1.196 1.38-2.553 2.3-3.425zM38.379 40.626c-1.544-.065-3.744 1.907-5.091 1.745 1.347.29 3.81-1.487 5.09-1.745zM35.883 38.848c-.1 1.551-4.106 2.521-4.533 3.555.493-1.357 4.007-2.36 4.532-3.555zM26.86 10.504c-.522-.425-1.133-.79-1.307-1.195.121.536.636.95 1.132 1.336.067-.035.119-.11.175-.141zM25.983 10.969c-.793-.389-1.727-.37-2.121-.884.252.517 1.108.728 1.863.995.074-.033.186-.092.258-.111zM23.665 14.19c.492-.356 2.299-.162 2.61-.388-.64.533-2.052.145-2.61.388zM19.346 15.094c.394-.678 2.66-1.13 3.005-1.745-.608 1.164-2.365 1.002-3.005 1.745zM19.69 15.886c.822-.824 2.809-.5 3.4-.97-1.396 1.229-2.151.275-3.4.97zM23.09 13.495c.493-1.002 1.856-1.115 2.217-1.73-.542.922-1.708 1.051-2.217 1.73zM27.015 12.622c1.412-.646 2.808-.097 3.481-.404-.821.42-2.775.226-3.481.404zM16.226 17.486c.328-.743 1.494-1.584 1.609-1.875-.345.986-1.297 1.229-1.61 1.875zM15.914 18.827c1.034-1.6 2.627-1.406 3.284-2.02-.493.582-2.348.97-3.284 2.02zM13.533 21.267c-.083-1.68 1.198-2.327 1.248-3.264.032 1.115-1.298 2.666-1.248 3.264zM14.173 22.172c.263-1.47 2.003-1.551 2.299-2.424 0 .808-2.036 1.632-2.3 2.424zM12.728 21.332c-.92 1.131-.263 2.812-.657 4.04.46-.905.23-3.168.657-4.04zM14.238 26.083c-1.379 1.454-.82 3.102-1.379 3.813.69-1.002.591-2.908 1.38-3.813zM11.381 26.277c1.183 1.292.46 3.231 1.084 4.136-.69-.776-.591-3.167-1.084-4.136zM12.86 26.277c.163-1.487 1.576-2.263 1.707-3.07.131.807-1.38 2.068-1.708 3.07zM13.582 29.831c-.23 1.035.624 3.265.36 3.943.56-1.196-.492-3.425-.36-3.943zM11.775 32.19c.559 1.843 1.675 1.714 2.037 2.845-.263-1.067-1.741-2.036-2.037-2.844zM15.42 33.063c.756 1.228.132 2.65.756 3.523-.886-.873-.427-2.52-.755-3.523zM13.647 36.424c.887 1.649 2.726 1.487 3.482 2.683-.756-1.487-3.022-1.745-3.482-2.683zM16.899 36.23c1.576 1.1 1.084 2.23 2.299 3.426-1.51-1.196-1.38-2.553-2.3-3.425zM17.622 40.626c1.543-.065 3.744 1.907 5.09 1.745-1.346.29-3.81-1.487-5.09-1.745zM20.118 38.848c.098 1.551 4.105 2.521 4.532 3.555-.493-1.357-4.007-2.36-4.532-3.555zM25.93 12.67c.313-1.357 1.84-1.615 2.037-2.407-.066.856-1.888 1.81-2.036 2.408zM30.447 9.31c-.23 1.018-1.889 1.6-2.119 2.375.083-1.05 1.807-1.648 2.119-2.376zM29.15 11.733c.788-1.26 2.43-.92 2.988-1.648-.41.84-2.414.873-2.988 1.648z" fill="#7DB63E"/><path fill-rule="evenodd" clip-rule="evenodd" d="M26.62 43.082c-2.25 1.115-5.074.808-7.455-.695-.108-.068-.155.022-.049.307.263.711.46 1.293-.312 2.392-.338.481.046.535.608.484 2.873-.258 5.698-.904 7.044-1.422l.165-1.066zM26.555 44.407c-.88.338-2.409.768-4.14 1.062-.688.117-.672.538.576.683 1.248.146 2.858-.743 3.843-1.535l-.28-.21z" fill="#FFFFFE"/><path fill-rule="evenodd" clip-rule="evenodd" d="M28 41.983c.312 0 .882-.122 1.445-.21 1.035-.162.28 1.422-1.445 1.422v.533c1.74 0 3.564-1.874 3.186-2.714-.543-1.208-2.036-.162-3.186-.162s-2.643-1.046-3.186.162c-.378.84 1.445 2.714 3.186 2.714v-.533c-1.724 0-2.48-1.584-1.445-1.422.563.088 1.133.21 1.445.21z" fill="#FFFFFE"/><path fill-rule="evenodd" clip-rule="evenodd" d="M29.38 43.082c2.25 1.115 5.074.808 7.455-.695.108-.068.155.022.05.307-.264.711-.46 1.293.311 2.392.339.481-.045.535-.607.484-2.874-.258-5.699-.904-7.045-1.422l-.165-1.066zM29.445 44.407c.881.338 2.409.768 4.14 1.062.688.117.672.538-.576.683-1.248.146-2.858-.743-3.843-1.535l.28-.21z" fill="#FFFFFE"/><path fill-rule="evenodd" clip-rule="evenodd" d="M28.082 44.148c.036.423.135 1.348.723.954.771-.517.952-.937.952-1.697 0-.468-.591-1.163-1.757-1.163s-1.757.695-1.757 1.163c0 .76.18 1.18.953 1.697.587.394.651-.535.722-.953.025-.146.156-.098.164 0z" fill="#FFFFFE"/><path d="M55.5 28c0 15.188-12.312 27.5-27.5 27.5S.5 43.188.5 28 12.812.5 28 .5 55.5 12.812 55.5 28z" stroke="#000" stroke-opacity=".1" fill="none"/></svg>